# xmcd CD database file
# Copyright (C) 1993-1996 Ti Kan
#
# Track frame offsets:
#	182
#	12632
#	31582
#	50915
#	64432
#	77187
#	91957
#	102880
#	114495
#	129270
#
# Disc length: 2208 seconds
#
# Revision: 1
# Processed by: cddbd v1.4b41PL1 Copyright (c) Steve Scherf et al.
# Submitted via: xmcd 2.0
#
DISCID=81089e0a
DTITLE=Richie Fish and the Other peple
DYEAR=1900
DGENRE=
TTITLE0=Nerd Surfer
TTITLE1=Danger House
TTITLE2=Human Virus
TTITLE3=Chicken Song
TTITLE4=Cop This
TTITLE5=Physical Block
TTITLE6=Talk to the Trees
TTITLE7=To Busy
TTITLE8=What a relief
TTITLE9=Hastings Road
EXTD=
EXTT0=
EXTT1=
EXTT2=
EXTT3=
EXTT4=
EXTT5=
EXTT6=
EXTT7=
EXTT8=
EXTT9=
PLAYORDER=
